<?xml version="1.0" standalone="no"?>
<!DOCTYPE svg PUBLIC "-//W3C//DTD SVG 20010904//EN"
 "http://www.w3.org/TR/2001/REC-SVG-20010904/DTD/svg10.dtd">
<svg version="1.0" xmlns="http://www.w3.org/2000/svg"
 width="231.000000pt" height="270.000000pt" viewBox="0 0 231.000000 270.000000"
 preserveAspectRatio="xMidYMid meet">
<metadata>
Created by potrace 1.16, written by Peter Selinger 2001-2019
</metadata>
<g transform="translate(0.000000,270.000000) scale(0.100000,-0.100000)"
fill="#000000" stroke="none">
<path d="M1150 2311 c0 -25 -4 -30 -27 -33 -22 -2 -29 -9 -31 -30 -3 -25 0
-28 27 -28 29 0 31 -2 31 -40 0 -34 -4 -42 -30 -55 -16 -8 -34 -24 -40 -36
-16 -30 -15 -95 3 -122 l15 -24 -56 9 c-32 5 -84 7 -117 5 -33 -3 -113 -7
-178 -10 -141 -6 -167 -17 -167 -75 1 -20 20 -134 44 -252 l42 -215 492 -3
491 -2 10 37 c5 21 24 92 41 158 17 66 37 131 44 145 18 32 39 137 32 155 -12
32 -64 44 -232 55 -93 6 -193 9 -221 5 -50 -6 -70 3 -43 20 6 3 10 26 10 50 0
47 -33 98 -70 110 -15 5 -20 15 -20 46 0 37 2 39 30 39 27 0 30 3 30 30 0 27
-3 30 -30 30 -27 0 -30 3 -30 30 0 25 -4 30 -25 30 -21 0 -25 -5 -25 -29z
m-297 -443 c2 -18 4 -33 3 -33 0 0 -44 -14 -96 -32 -52 -17 -97 -30 -98 -28
-10 10 -22 89 -14 97 12 12 87 26 148 27 51 1 52 0 57 -31z m809 12 c21 -6 39
-14 42 -18 2 -4 0 -28 -5 -53 l-10 -45 -95 32 c-52 18 -98 34 -100 37 -3 2 -2
16 2 31 6 25 10 26 68 26 33 0 78 -5 98 -10z m-187 -109 c118 -27 183 -54 187
-76 4 -20 2 -21 -23 -12 -46 18 -74 -23 -53 -77 7 -19 55 -21 72 -4 22 22 13
-10 -11 -37 -16 -20 -35 -28 -67 -31 -55 -6 -87 10 -113 54 l-19 32 29 -17
c16 -9 37 -14 46 -10 37 14 29 107 -9 107 -10 0 -26 -8 -38 -17 -19 -18 -19
-18 -3 7 25 36 21 59 -10 71 -58 22 -104 -21 -67 -62 9 -10 12 -19 6 -19 -6 0
-14 5 -17 10 -3 6 -17 10 -31 10 -17 0 -27 -8 -35 -27 -22 -57 29 -96 73 -56
26 23 22 4 -8 -40 -25 -38 -26 -38 -87 -35 -60 3 -62 4 -84 43 -26 46 -31 71
-7 37 34 -49 96 -10 80 52 -9 36 -42 43 -73 14 l-25 -23 21 36 c12 20 19 43
15 52 -9 24 -61 32 -89 13 -30 -20 -30 -20 -3 -65 l23 -36 -29 23 c-34 26 -40
27 -60 6 -19 -18 -21 -65 -4 -82 18 -18 39 -15 66 11 14 12 23 18 21 12 -43
-91 -53 -99 -130 -93 -40 3 -46 6 -68 48 -22 40 -22 43 -4 28 27 -24 49 -23
67 4 21 30 20 44 -5 69 -19 19 -22 19 -44 5 -34 -22 -36 -20 -17 13 14 24 14
31 3 45 -7 9 -25 16 -39 16 -14 0 -23 3 -20 6 3 3 68 8 144 12 157 8 364 0
439 -17z m-613 -13 c-17 -17 -15 -38 4 -59 15 -17 15 -18 -14 -7 -38 15 -62
-2 -62 -41 0 -48 37 -66 72 -34 25 22 24 0 -2 -42 -23 -38 -53 -48 -110 -39
-31 5 -48 15 -67 41 -25 33 -28 58 -3 28 7 -8 25 -15 41 -15 22 0 30 6 35 25
16 63 -25 100 -71 63 -26 -21 -33 -14 -12 13 16 21 51 39 117 60 68 22 89 24
72 7z"/>
<path d="M830 1275 c-25 -19 -58 -37 -75 -41 -43 -9 -115 -81 -115 -115 0 -16
-15 -47 -35 -73 -19 -26 -35 -49 -35 -53 0 -12 92 -113 102 -113 6 0 32 23 57
51 l46 50 120 -120 120 -121 -165 -165 -165 -165 55 -55 55 -55 165 165 165
165 160 -166 160 -167 58 52 57 53 -160 166 c-88 91 -160 168 -160 172 0 3 50
58 111 123 l112 118 21 -20 c28 -26 112 -67 154 -74 31 -6 32 -5 32 26 0 37
-30 107 -66 154 -14 19 -24 45 -24 65 0 25 -9 42 -33 66 -18 18 -39 32 -45 32
-21 0 -85 36 -106 59 -11 12 -24 21 -30 21 -14 0 -106 -92 -106 -106 0 -5 20
-30 45 -54 25 -24 45 -48 45 -53 0 -5 -50 -60 -112 -123 l-112 -115 -118 118
-117 117 51 54 51 54 -54 54 c-29 30 -56 54 -59 54 -3 0 -25 -16 -50 -35z"/>
</g>
</svg>
