<?xml version="1.0" encoding="UTF-8" standalone="no"?><!DOCTYPE svg PUBLIC "-//W3C//DTD SVG 1.1//EN" "http://www.w3.org/Graphics/SVG/1.1/DTD/svg11.dtd"><svg width="100%" height="100%" viewBox="0 0 365 123" version="1.1" xmlns="http://www.w3.org/2000/svg" xmlns:xlink="http://www.w3.org/1999/xlink" xml:space="preserve" xmlns:serif="http://www.serif.com/" style="fill-rule:evenodd;clip-rule:evenodd;stroke-linejoin:round;stroke-miterlimit:2;"><g><rect x="111.949" y="109.18" width="121.068" height="13.371" style="fill:#f2a452;fill-rule:nonzero;"/><path d="M330.355,0l0,13.373l20.636,-0l-0,20.636l13.372,0l0,-34.009l-34.008,0Z" style="fill:#f2a452;fill-rule:nonzero;"/><path d="M0,14.717l0,-9.476l24.072,-0l0,48.684l3.501,-0l9.047,-12.763l-5.116,-0.701l-0,-9.478l28.65,0l-0,9.478l-6.893,1.562l-10.502,14.434l14.702,22.134l5.978,1.24l-0,9.424l-26.926,-0l0,-9.424l3.231,-0.541l-8.94,-14.432l-6.732,0l0,13.354l6.785,1.619l0,9.424l-30.05,-0l-0,-9.424l7.593,-1.619l-0,-61.877l-8.4,-1.618Z" style="fill:#f2a452;fill-rule:nonzero;"/><path d="M90.929,17.036l-15.725,-0l0,-11.795l15.725,-0l0,11.795Zm-23.319,62.795l7.594,-1.619l0,-36.134l-8.402,-1.617l0,-9.478l24.127,0l0,47.229l7.54,1.619l0,9.424l-30.859,-0l0,-9.424Z" style="fill:#f2a452;fill-rule:nonzero;"/><path d="M101.805,42.023l0,-11.04l8.67,0l-0,-3.985c-0,-7.325 2.234,-12.97 6.705,-16.937c4.469,-3.967 10.761,-5.951 18.876,-5.951c2.799,-0 5.563,0.278 8.293,0.833c2.728,0.558 5.888,1.357 9.478,2.397l-2.262,12.388c-2.621,-0.791 -5.001,-1.401 -7.136,-1.832c-2.136,-0.431 -4.585,-0.647 -7.35,-0.647c-3.627,-0 -6.348,0.828 -8.159,2.479c-1.814,1.65 -2.72,4.075 -2.72,7.27l-0,3.985l35.328,0l-0,47.229l8.347,1.619l-0,9.424l-31.665,-0l0,-9.424l7.593,-1.619l-0,-36.189l-19.603,-0l-0,36.189l7.594,1.619l0,9.424l-31.72,-0l-0,-9.424l8.401,-1.619l-0,-36.189l-8.67,-0Z" style="fill:#f2a452;fill-rule:nonzero;"/><path d="M173.847,79.831l7.54,-1.619l-0,-36.134l-8.349,-1.617l-0,-9.478l22.997,0l0.7,8.347c1.938,-2.979 4.326,-5.295 7.161,-6.946c2.836,-1.652 6.013,-2.478 9.534,-2.478c5.887,0 10.482,1.849 13.785,5.547c3.303,3.698 4.956,9.498 4.956,17.395l0,25.364l7.539,1.619l0,9.424l-30.051,-0l-0,-9.424l6.734,-1.619l0,-25.311c0,-3.912 -0.792,-6.686 -2.372,-8.319c-1.581,-1.635 -3.967,-2.45 -7.163,-2.45c-2.083,-0 -3.948,0.422 -5.599,1.265c-1.652,0.844 -3.035,2.038 -4.149,3.58l0,31.235l6.357,1.619l-0,9.424l-29.62,-0l0,-9.424Z" style="fill:#f2a452;fill-rule:nonzero;"/><path d="M243.228,79.831l7.592,-1.619l0,-36.189l-8.67,-0l-0,-11.04l8.67,0l0,-6.462c0,-6.536 1.886,-11.57 5.655,-15.106c3.768,-3.537 9.064,-5.305 15.886,-5.305c1.328,-0 2.684,0.1 4.068,0.297c1.381,0.197 2.898,0.475 4.55,0.834l-1.347,11.686c-0.861,-0.143 -1.697,-0.269 -2.504,-0.377c-0.808,-0.107 -1.75,-0.16 -2.827,-0.16c-2.549,-0 -4.481,0.698 -5.789,2.098c-1.312,1.401 -1.966,3.412 -1.966,6.033l-0,6.462l11.577,0l-0,11.04l-11.577,-0l-0,36.189l7.593,1.619l0,9.424l-30.911,-0l-0,-9.424Z" style="fill:#f2a452;fill-rule:nonzero;"/><path d="M295.034,60.712c-0,5.312 0.934,9.578 2.801,12.789c1.866,3.215 4.883,4.82 9.046,4.82c4.057,-0 7.029,-1.615 8.915,-4.845c1.884,-3.231 2.827,-7.487 2.827,-12.764l-0,-1.13c-0,-5.172 -0.952,-9.39 -2.855,-12.657c-1.902,-3.268 -4.901,-4.902 -8.994,-4.902c-4.092,-0 -7.073,1.634 -8.939,4.902c-1.867,3.267 -2.801,7.485 -2.801,12.657l-0,1.13Zm-15.725,-1.13c-0,-8.691 2.432,-15.809 7.296,-21.356c4.866,-5.547 11.587,-8.32 20.169,-8.32c8.618,0 15.357,2.764 20.223,8.293c4.864,5.53 7.297,12.655 7.297,21.383l0,1.13c0,8.76 -2.433,15.894 -7.297,21.404c-4.866,5.514 -11.571,8.268 -20.116,8.268c-8.652,-0 -15.41,-2.754 -20.276,-8.268c-4.864,-5.51 -7.296,-12.644 -7.296,-21.404l-0,-1.13Z" style="fill:#f2a452;fill-rule:nonzero;"/></g></svg>