<?xml version="1.0" encoding="UTF-8" standalone="no"?>
<!-- Created with Inkscape (http://www.inkscape.org/) -->

<svg
   xmlns:dc="http://purl.org/dc/elements/1.1/"
   xmlns:cc="http://creativecommons.org/ns#"
   xmlns:rdf="http://www.w3.org/1999/02/22-rdf-syntax-ns#"
   xmlns:svg="http://www.w3.org/2000/svg"
   xmlns="http://www.w3.org/2000/svg"
   xmlns:sodipodi="http://sodipodi.sourceforge.net/DTD/sodipodi-0.dtd"
   xmlns:inkscape="http://www.inkscape.org/namespaces/inkscape"
   width="162.02824mm"
   height="65.00589mm"
   viewBox="0 0 162.02824 65.00589"
   version="1.1"
   id="svg7487"
   inkscape:version="0.92.0 r15299"
   sodipodi:docname="oxford brooke university.svg">
  <defs
     id="defs7481" />
  <sodipodi:namedview
     id="base"
     pagecolor="#ffffff"
     bordercolor="#666666"
     borderopacity="1.0"
     inkscape:pageopacity="0.0"
     inkscape:pageshadow="2"
     inkscape:zoom="0.35"
     inkscape:cx="282.87678"
     inkscape:cy="-541.90113"
     inkscape:document-units="mm"
     inkscape:current-layer="layer1"
     showgrid="false"
     fit-margin-top="0"
     fit-margin-left="0"
     fit-margin-right="0"
     fit-margin-bottom="0"
     inkscape:window-width="1280"
     inkscape:window-height="744"
     inkscape:window-x="-4"
     inkscape:window-y="-4"
     inkscape:window-maximized="1" />
  <metadata
     id="metadata7484">
    <rdf:RDF>
      <cc:Work
         rdf:about="">
        <dc:format>image/svg+xml</dc:format>
        <dc:type
           rdf:resource="http://purl.org/dc/dcmitype/StillImage" />
        <dc:title></dc:title>
      </cc:Work>
    </rdf:RDF>
  </metadata>
  <g
     inkscape:label="Layer 1"
     inkscape:groupmode="layer"
     id="layer1"
     transform="translate(62.371268,59.550565)">
    <g
       id="g7562"
       transform="translate(0.49999701,-0.50000102)">
      <path
         d="m -39.570388,-9.0558335 v 8.19325995 c 0,2.79219005 0.81512,4.32042805 3.09784,4.32042805 2.180731,0 3.057179,-1.854549 3.057179,-4.15740805 V -9.0558335 h 2.567832 v 8.86561895 c 0,3.60756205 -2.323362,5.64554105 -5.706601,5.64554105 -3.87213,0 -5.89002,-1.895491 -5.89002,-5.78803005 V -9.0558335 h 2.87377"
         style="fill:#424a52;fill-opacity:1;fill-rule:nonzero;stroke:none;stroke-width:0.03527778"
         id="path7332"
         inkscape:connector-curvature="0" />
      <path
         d="m -14.237908,5.2108645 h -2.078569 c -2.73121,-3.281248 -5.462061,-6.542238 -8.15234,-10.230958 h -0.0406 v 10.230958 h -2.30329 v -14.266698 h 2.099378 c 2.730852,3.261148 5.441252,6.501731 8.131533,10.169909 h 0.0413 v -10.169909 h 2.302579 v 14.266698"
         style="fill:#424a52;fill-opacity:1;fill-rule:nonzero;stroke:none;stroke-width:0.03527778"
         id="path7334"
         inkscape:connector-curvature="0" />
      <path
         d="m -10.039508,5.2108645 h 2.8733511 v -14.266687 h -2.8733511 z"
         style="fill:#424a52;fill-opacity:1;fill-rule:nonzero;stroke:none;stroke-width:0.03527778"
         id="path7336"
         inkscape:connector-curvature="0" />
      <path
         d="m 0.68035314,5.2108645 -5.29907004,-14.06276 3.057171,-0.407458 c 1.26365004,3.627541 2.50684004,7.25551 3.750029,11.372109 h 0.0409 c 1.304221,-4.116599 2.6289,-7.744568 3.953579,-11.372109 l 2.466271,0.407458 -5.625039,14.06276 H 0.68033214"
         style="fill:#424a52;fill-opacity:1;fill-rule:nonzero;stroke:none;stroke-width:0.03527778"
         id="path7338"
         inkscape:connector-curvature="0" />
      <path
         d="m 18.900273,-7.1399325 h -4.78931 v 3.913079 h 4.687361 v 1.915869 h -4.687361 v 4.605962 h 5.66596 v 1.915887 h -8.53934 v -14.266698 h 7.66269 v 1.915901"
         style="fill:#424a52;fill-opacity:1;fill-rule:nonzero;stroke:none;stroke-width:0.03527778"
         id="path7340"
         inkscape:connector-curvature="0" />
      <path
         d="m 25.972054,-2.4111935 h 1.161698 c 1.976972,0 2.608792,-1.52908 2.608792,-2.56826 0,-1.610111 -1.14123,-2.160479 -2.28282,-2.160479 h -1.48767 z m -2.873732,-6.64464 h 4.952651 c 2.731211,0 4.5653,1.30461 4.5653,3.72995 0,2.119419 -1.059751,3.342151 -2.40453,4.136988 l 3.383129,6.094251 -3.016599,0.549971 -2.89383,-5.95104005 H 25.972054 V 5.2108645 h -2.873732 v -14.266698"
         style="fill:#424a52;fill-opacity:1;fill-rule:nonzero;stroke:none;stroke-width:0.03527778"
         id="path7342"
         inkscape:connector-curvature="0" />
      <path
         d="m 43.458892,-6.5691735 c -0.63182,-0.42813 -1.46755,-0.815239 -2.30363,-0.815239 -1.20227,0 -1.85385,0.672499 -1.85385,1.50813 0,0.937749 0.99836,1.651029 2.66912,2.975747 1.91628,1.528522 2.93511,2.73085195 2.93511,4.483701 0,1.793531 -1.71203,3.872161 -4.93184,3.872161 -1.48837,0 -3.139369,-0.44841 -4.19911,-1.426681 l 1.039992,-1.6305 c 0.753528,0.550392 1.630178,1.141291 2.914298,1.141291 1.1818,0 2.22144,-0.63183 2.22144,-1.97666 0,-1.56916105 -1.91594,-2.60918 -3.05718,-3.505869 -1.385349,-1.12046 -2.54705,-1.997181 -2.54705,-3.89255 0,-1.915581 1.93604,-3.464671 4.52402,-3.464671 1.63019,0 2.93511,0.59119 3.60751,1.24316 l -1.01883,1.48798"
         style="fill:#424a52;fill-opacity:1;fill-rule:nonzero;stroke:none;stroke-width:0.03527778"
         id="path7344"
         inkscape:connector-curvature="0" />
      <path
         d="m 48.512792,5.2108645 h 2.87362 v -14.266687 h -2.87362 z"
         style="fill:#424a52;fill-opacity:1;fill-rule:nonzero;stroke:none;stroke-width:0.03527778"
         id="path7346"
         inkscape:connector-curvature="0" />
      <path
         d="m 58.499222,5.2108645 v -12.350797 h -4.40196 v -1.915901 h 11.67765 v 1.915901 h -4.40231 v 12.350797 h -2.87338"
         style="fill:#424a52;fill-opacity:1;fill-rule:nonzero;stroke:none;stroke-width:0.03527778"
         id="path7348"
         inkscape:connector-curvature="0" />
      <path
         d="m 71.623972,5.2108645 v -5.97145005 l -4.3815,-8.09130995 3.2198,-0.407458 c 0.99836,2.05835 1.97662,4.11688 2.97568,6.58273 1.10032,-2.46585 2.22144,-4.52438 3.32176,-6.58273 l 2.36396,0.407458 -4.62597,8.09130995 V 5.2108645 h -2.87373"
         style="fill:#424a52;fill-opacity:1;fill-rule:nonzero;stroke:none;stroke-width:0.03527778"
         id="path7350"
         inkscape:connector-curvature="0" />
      <path
         d="m -13.915828,-51.376475 c 0,-2.62925 -1.202259,-5.13609 -4.055528,-5.13609 -2.853272,0 -4.055891,2.50684 -4.055891,5.13609 0,2.730851 1.060098,5.5432 4.055891,5.5432 2.996139,0 4.055528,-2.812349 4.055528,-5.5432 z m -11.16824,0 c 0,-3.99485 3.01625,-7.17409 7.112712,-7.17409 4.096448,0 7.112698,3.17924 7.112698,7.17409 0,4.25944 -2.730849,7.58155 -7.112698,7.58155 -4.381852,0 -7.112712,-3.32211 -7.112712,-7.58155"
         style="fill:#424a52;fill-opacity:1;fill-rule:nonzero;stroke:none;stroke-width:0.03527778"
         id="path7352"
         inkscape:connector-curvature="0" />
      <path
         d="m 1.0433621,-43.835845 -3.5052,-5.930549 -3.383489,5.930549 -2.58798,-0.44838 4.585409,-7.500059 -3.93347,-6.317901 2.996141,-0.40746 2.6289,4.564951 2.60878904,-4.564951 2.50683996,0.40746 -3.81105796,6.052961 4.97275896,7.764999 -3.077641,0.44838"
         style="fill:#424a52;fill-opacity:1;fill-rule:nonzero;stroke:none;stroke-width:0.03527778"
         id="path7354"
         inkscape:connector-curvature="0" />
      <path
         d="m 14.963273,-56.390505 h -4.769199 v 4.68807 h 4.687348 v 1.915231 h -4.687348 v 5.747449 H 7.3203421 v -14.26633 h 7.6429309 v 1.91558"
         style="fill:#424a52;fill-opacity:1;fill-rule:nonzero;stroke:none;stroke-width:0.03527778"
         id="path7356"
         inkscape:connector-curvature="0" />
      <path
         d="m 28.882473,-51.376475 c 0,-2.62925 -1.202269,-5.13609 -4.05553,-5.13609 -2.85327,0 -4.055539,2.50684 -4.055539,5.13609 0,2.730851 1.059749,5.5432 4.055539,5.5432 2.995779,0 4.05553,-2.812349 4.05553,-5.5432 z m -11.16789,0 c 0,-3.99485 3.01625,-7.17409 7.11236,-7.17409 4.09716,0 7.112701,3.17924 7.112701,7.17409 0,4.25944 -2.7305,7.58155 -7.112701,7.58155 -4.3815,0 -7.11236,-3.32211 -7.11236,-7.58155"
         style="fill:#424a52;fill-opacity:1;fill-rule:nonzero;stroke:none;stroke-width:0.03527778"
         id="path7358"
         inkscape:connector-curvature="0" />
      <path
         d="m 38.237432,-51.661874 h 1.1617 c 1.97661,0 2.60844,-1.52858 2.60844,-2.567861 0,-1.61008 -1.14089,-2.16077 -2.28248,-2.16077 h -1.48766 z m -2.87408,-6.644211 h 4.953 c 2.73121,0 4.5653,1.30422 4.5653,3.729561 0,2.119849 -1.05975,3.342569 -2.40524,4.13738 l 3.38349,6.094239 -3.01625,0.54998 -2.89419,-5.95136 h -1.71203 v 5.70653 h -2.87408 v -14.26633"
         style="fill:#424a52;fill-opacity:1;fill-rule:nonzero;stroke:none;stroke-width:0.03527778"
         id="path7360"
         inkscape:connector-curvature="0" />
      <path
         d="m 51.505052,-45.955335 h 1.75225 c 3.28189,0 5.0546,-1.67146 5.0546,-5.6455 0,-2.955219 -1.71203,-4.78967 -4.72793,-4.78967 h -2.07892 z m 2.05811,-12.35075 c 5.80848,0 7.80591,3.281541 7.80591,6.725351 0,4.708529 -3.0166,7.540979 -8.0705,7.540979 h -4.66725 v -14.26633 h 4.93184"
         style="fill:#424a52;fill-opacity:1;fill-rule:nonzero;stroke:none;stroke-width:0.03527778"
         id="path7362"
         inkscape:connector-curvature="0" />
      <path
         d="m -54.290998,-19.647705 c 0,3.402221 0.63789,4.076102 3.15433,4.076102 2.69324,0 4.25263,-2.020081 4.25263,-5.528842 0,-4.253019 -2.5163,-5.776741 -5.35147,-5.776741 h -2.05549 z m 0,-8.399151 h 2.44531 c 1.8784,0 3.93404,-1.275498 3.93404,-5.209539 0,-3.40254 -1.45313,-4.78472 -4.43011,-4.78472 h -1.94924 z m -8.08027,13.644391 v -1.09859 c 1.59494,-0.106249 2.79962,-0.283739 2.94156,-0.921491 0.14166,-0.673449 0.14166,-1.205089 0.14166,-2.161468 v -16.444731 c 0,-0.95674 0,-1.48837 -0.14166,-2.16183 -0.14194,-0.63747 -1.34662,-0.81491 -2.94156,-0.9211 v -1.09855 h 11.27016 c 4.96132,0 8.15068,1.45274 8.15068,5.38656 0,3.15454 -2.30339,5.20976 -5.52827,5.883349 v 0.0706 c 4.18165,0.2129 7.19416,2.658211 7.19416,6.37921 0,4.81996 -3.79208,7.08808 -9.21438,7.08808 h -11.87235"
         style="fill:#424a52;fill-opacity:1;fill-rule:nonzero;stroke:none;stroke-width:0.03527778"
         id="path7364"
         inkscape:connector-curvature="0" />
      <path
         d="m -32.451727,-26.699944 h 2.480911 c 3.118628,0 4.181898,-2.65811 4.181898,-5.989541 0,-3.82763 -1.736579,-5.13856 -4.181898,-5.13856 h -2.480911 z m -8.080271,-12.510281 h 12.47472 c 4.04037,0 7.584371,1.9491 7.584371,6.27274 0,3.22499 -2.16182,5.882819 -5.2451,6.91085 l 3.614909,5.56369 c 1.630191,2.481159 3.437822,4.784799 4.430192,5.422591 v 0.637889 h -5.103292 c -2.091258,0 -4.253079,-6.024809 -7.052831,-10.915481 h -2.622698 v 6.733932 c 0,0.956379 0,1.488019 0.141819,2.161468 0.14178,0.637752 1.382181,0.815242 2.941431,0.921491 v 1.09859 h -11.163521 v -1.09859 c 1.55942,-0.106249 2.79993,-0.283739 2.94157,-0.921491 0.14182,-0.673449 0.14182,-1.205089 0.14182,-2.161468 v -16.444731 c 0,-0.95674 0,-1.48837 -0.14182,-2.16183 -0.14164,-0.63747 -1.38215,-0.81491 -2.94157,-0.9211 v -1.09855"
         style="fill:#424a52;fill-opacity:1;fill-rule:nonzero;stroke:none;stroke-width:0.03527778"
         id="path7366"
         inkscape:connector-curvature="0" />
      <path
         d="m 1.8896821,-26.452056 c 0,-8.293059 -3.969459,-11.907619 -7.76147,-11.907619 -4.6069201,0 -7.0171001,4.25273 -7.0171001,10.24184 0,8.364291 3.6149101,12.864681 7.6196511,12.864681 4.89091004,0 7.158919,-4.607171 7.158919,-11.198902 z m -20.2716801,-0.177059 c 0,-7.19455 5.847649,-13.00656 13.4673001,-13.00656 7.300381,0 12.297831,5.95418 12.297831,12.19144 0,8.18638 -6.48582096,13.467151 -13.573832,13.467151 -5.7411091,0 -12.1912991,-4.358852 -12.1912991,-12.652031"
         style="fill:#424a52;fill-opacity:1;fill-rule:nonzero;stroke:none;stroke-width:0.03527778"
         id="path7368"
         inkscape:connector-curvature="0" />
      <path
         d="m 29.949273,-26.452056 c 0,-8.293059 -3.969459,-11.907619 -7.761819,-11.907619 -4.607282,0 -7.017102,4.25273 -7.017102,10.24184 0,8.364291 3.61456,12.864681 7.62,12.864681 4.890561,0 7.158921,-4.607171 7.158921,-11.198902 z M 9.6772531,-26.629115 c 0,-7.19455 5.8476409,-13.00656 13.4672889,-13.00656 7.30073,0 12.297481,5.95418 12.297481,12.19144 0,8.18638 -6.485821,13.467151 -13.573479,13.467151 -5.741112,0 -12.1912909,-4.358852 -12.1912909,-12.652031"
         style="fill:#424a52;fill-opacity:1;fill-rule:nonzero;stroke:none;stroke-width:0.03527778"
         id="path7370"
         inkscape:connector-curvature="0" />
      <path
         d="m 38.737672,-35.028745 c 0,-0.95674 0,-1.48837 -0.14182,-2.16183 -0.14217,-0.63747 -1.34655,-0.81491 -2.941458,-0.9211 v -1.09855 h 11.163298 v 1.09855 c -1.5942,0.10619 -2.79929,0.28363 -2.94146,0.9211 -0.14182,0.67346 -0.14182,1.20509 -0.14182,2.16183 v 7.265491 c 0.38982,0 1.20509,-0.318881 2.304,-1.453131 l 6.1662,-6.27274 c 1.59491,-1.59491 0.28363,-2.65818 -1.34655,-2.62255 v -1.09855 h 7.2651 v 1.09855 c -1.38218,0.248 -2.72838,1.73637 -4.00438,3.048 l -6.344,6.626831 c 3.47345,4.43011 7.90293,10.206739 11.37638,13.502709 v 0.53167 h -4.74945 c -1.55928,0 -2.33856,-1.346629 -3.54365,-2.976848 l -6.55673,-9.178711 h -0.56692 v 7.97401 c 0,0.956379 0,1.488019 0.14182,2.161468 0.14217,0.637752 1.34726,0.815242 2.94146,0.921491 v 1.09859 H 35.654394 v -1.09859 c 1.594908,-0.106249 2.799288,-0.283739 2.941458,-0.921491 0.14182,-0.673449 0.14182,-1.205089 0.14182,-2.161468 v -16.444731"
         style="fill:#424a52;fill-opacity:1;fill-rule:nonzero;stroke:none;stroke-width:0.03527778"
         id="path7372"
         inkscape:connector-curvature="0" />
      <path
         d="m 60.917872,-15.501055 c 1.55928,-0.106249 2.8,-0.283739 2.94146,-0.921491 0.14182,-0.673449 0.14182,-1.205089 0.14182,-2.161468 v -16.444731 c 0,-0.95674 0,-1.48837 -0.14182,-2.16183 -0.14146,-0.63747 -1.38218,-0.81491 -2.94146,-0.9211 v -1.09855 h 17.40112 v 5.70548 h -0.95709 c -0.53128,-2.51602 -1.38218,-4.39456 -3.86256,-4.39456 h -4.50074 v 9.923429 h 2.94146 c 2.23238,0 3.18946,-1.382178 3.18946,-3.40233 h 0.95709 v 8.257432 h -0.95709 c -0.0709,-1.949091 -0.81491,-3.543901 -3.18946,-3.543901 h -2.94146 v 8.045 c 0,2.69349 1.31127,2.905861 4.21675,2.905861 4.50144,0 5.17454,-1.94909 6.66291,-5.102889 h 0.95709 l -1.06327,6.414238 h -18.85421 v -1.09859"
         style="fill:#424a52;fill-opacity:1;fill-rule:nonzero;stroke:none;stroke-width:0.03527778"
         id="path7374"
         inkscape:connector-curvature="0" />
      <path
         d="m 95.857332,-33.717125 c -0.63817,-2.23273 -1.94909,-4.64255 -4.74944,-4.64255 -1.59421,0 -3.43747,0.99201 -3.43747,3.61456 0,2.48073 2.37419,3.721451 6.23782,6.66298 3.61456,2.728671 4.74874,4.71343 4.74874,7.40682 0,4.359031 -4.32365,6.698231 -9.39165,6.698231 -2.94111,0 -4.89056,-0.425381 -6.73347,-1.13411 -0.14217,-0.071 -0.24836,-0.212521 -0.24836,-0.49611 v -5.38731 h 0.95709 c 0.60219,3.22545 2.62255,5.74146 5.63492,5.74146 2.30329,0 4.35927,-1.87812 4.35927,-4.46511 0,-2.339229 -1.02799,-3.93404 -5.98946,-7.158922 -2.65818,-1.701159 -4.85563,-3.65012 -4.85563,-6.769029 0,-3.50873 3.36726,-5.98946 8.25782,-5.98946 2.30364,0 4.04001,0.0709 5.81202,0.56691 0.248,0.10654 0.35489,0.31927 0.35489,0.49601 v 4.85563 h -0.95709"
         style="fill:#424a52;fill-opacity:1;fill-rule:nonzero;stroke:none;stroke-width:0.03527778"
         id="path7376"
         inkscape:connector-curvature="0" />
    </g>
    <g
       transform="translate(0.49999701,-0.50000102)"
       id="g7610">
      <path
         inkscape:connector-curvature="0"
         id="path7564"
         style="fill:#424a52;fill-opacity:1;fill-rule:nonzero;stroke:none;stroke-width:0.03527778"
         d="m -39.570388,-9.0558335 v 8.19325995 c 0,2.79219005 0.81512,4.32042805 3.09784,4.32042805 2.180731,0 3.057179,-1.854549 3.057179,-4.15740805 V -9.0558335 h 2.567832 v 8.86561895 c 0,3.60756205 -2.323362,5.64554105 -5.706601,5.64554105 -3.87213,0 -5.89002,-1.895491 -5.89002,-5.78803005 V -9.0558335 h 2.87377" />
      <path
         inkscape:connector-curvature="0"
         id="path7566"
         style="fill:#424a52;fill-opacity:1;fill-rule:nonzero;stroke:none;stroke-width:0.03527778"
         d="m -14.237908,5.2108645 h -2.078569 c -2.73121,-3.281248 -5.462061,-6.542238 -8.15234,-10.230958 h -0.0406 v 10.230958 h -2.30329 v -14.266698 h 2.099378 c 2.730852,3.261148 5.441252,6.501731 8.131533,10.169909 h 0.0413 v -10.169909 h 2.302579 v 14.266698" />
      <path
         inkscape:connector-curvature="0"
         id="path7568"
         style="fill:#424a52;fill-opacity:1;fill-rule:nonzero;stroke:none;stroke-width:0.03527778"
         d="m -10.039508,5.2108645 h 2.8733511 v -14.266687 h -2.8733511 z" />
      <path
         inkscape:connector-curvature="0"
         id="path7570"
         style="fill:#424a52;fill-opacity:1;fill-rule:nonzero;stroke:none;stroke-width:0.03527778"
         d="m 0.68035314,5.2108645 -5.29907004,-14.06276 3.057171,-0.407458 c 1.26365004,3.627541 2.50684004,7.25551 3.750029,11.372109 h 0.0409 c 1.304221,-4.116599 2.6289,-7.744568 3.953579,-11.372109 l 2.466271,0.407458 -5.625039,14.06276 H 0.68033214" />
      <path
         inkscape:connector-curvature="0"
         id="path7572"
         style="fill:#424a52;fill-opacity:1;fill-rule:nonzero;stroke:none;stroke-width:0.03527778"
         d="m 18.900273,-7.1399325 h -4.78931 v 3.913079 h 4.687361 v 1.915869 h -4.687361 v 4.605962 h 5.66596 v 1.915887 h -8.53934 v -14.266698 h 7.66269 v 1.915901" />
      <path
         inkscape:connector-curvature="0"
         id="path7574"
         style="fill:#424a52;fill-opacity:1;fill-rule:nonzero;stroke:none;stroke-width:0.03527778"
         d="m 25.972054,-2.4111935 h 1.161698 c 1.976972,0 2.608792,-1.52908 2.608792,-2.56826 0,-1.610111 -1.14123,-2.160479 -2.28282,-2.160479 h -1.48767 z m -2.873732,-6.64464 h 4.952651 c 2.731211,0 4.5653,1.30461 4.5653,3.72995 0,2.119419 -1.059751,3.342151 -2.40453,4.136988 l 3.383129,6.094251 -3.016599,0.549971 -2.89383,-5.95104005 H 25.972054 V 5.2108645 h -2.873732 v -14.266698" />
      <path
         inkscape:connector-curvature="0"
         id="path7576"
         style="fill:#424a52;fill-opacity:1;fill-rule:nonzero;stroke:none;stroke-width:0.03527778"
         d="m 43.458892,-6.5691735 c -0.63182,-0.42813 -1.46755,-0.815239 -2.30363,-0.815239 -1.20227,0 -1.85385,0.672499 -1.85385,1.50813 0,0.937749 0.99836,1.651029 2.66912,2.975747 1.91628,1.528522 2.93511,2.73085195 2.93511,4.483701 0,1.793531 -1.71203,3.872161 -4.93184,3.872161 -1.48837,0 -3.139369,-0.44841 -4.19911,-1.426681 l 1.039992,-1.6305 c 0.753528,0.550392 1.630178,1.141291 2.914298,1.141291 1.1818,0 2.22144,-0.63183 2.22144,-1.97666 0,-1.56916105 -1.91594,-2.60918 -3.05718,-3.505869 -1.385349,-1.12046 -2.54705,-1.997181 -2.54705,-3.89255 0,-1.915581 1.93604,-3.464671 4.52402,-3.464671 1.63019,0 2.93511,0.59119 3.60751,1.24316 l -1.01883,1.48798" />
      <path
         inkscape:connector-curvature="0"
         id="path7578"
         style="fill:#424a52;fill-opacity:1;fill-rule:nonzero;stroke:none;stroke-width:0.03527778"
         d="m 48.512792,5.2108645 h 2.87362 v -14.266687 h -2.87362 z" />
      <path
         inkscape:connector-curvature="0"
         id="path7580"
         style="fill:#424a52;fill-opacity:1;fill-rule:nonzero;stroke:none;stroke-width:0.03527778"
         d="m 58.499222,5.2108645 v -12.350797 h -4.40196 v -1.915901 h 11.67765 v 1.915901 h -4.40231 v 12.350797 h -2.87338" />
      <path
         inkscape:connector-curvature="0"
         id="path7582"
         style="fill:#424a52;fill-opacity:1;fill-rule:nonzero;stroke:none;stroke-width:0.03527778"
         d="m 71.623972,5.2108645 v -5.97145005 l -4.3815,-8.09130995 3.2198,-0.407458 c 0.99836,2.05835 1.97662,4.11688 2.97568,6.58273 1.10032,-2.46585 2.22144,-4.52438 3.32176,-6.58273 l 2.36396,0.407458 -4.62597,8.09130995 V 5.2108645 h -2.87373" />
      <path
         inkscape:connector-curvature="0"
         id="path7584"
         style="fill:#424a52;fill-opacity:1;fill-rule:nonzero;stroke:none;stroke-width:0.03527778"
         d="m -13.915828,-51.376475 c 0,-2.62925 -1.202259,-5.13609 -4.055528,-5.13609 -2.853272,0 -4.055891,2.50684 -4.055891,5.13609 0,2.730851 1.060098,5.5432 4.055891,5.5432 2.996139,0 4.055528,-2.812349 4.055528,-5.5432 z m -11.16824,0 c 0,-3.99485 3.01625,-7.17409 7.112712,-7.17409 4.096448,0 7.112698,3.17924 7.112698,7.17409 0,4.25944 -2.730849,7.58155 -7.112698,7.58155 -4.381852,0 -7.112712,-3.32211 -7.112712,-7.58155" />
      <path
         inkscape:connector-curvature="0"
         id="path7586"
         style="fill:#424a52;fill-opacity:1;fill-rule:nonzero;stroke:none;stroke-width:0.03527778"
         d="m 1.0433621,-43.835845 -3.5052,-5.930549 -3.383489,5.930549 -2.58798,-0.44838 4.585409,-7.500059 -3.93347,-6.317901 2.996141,-0.40746 2.6289,4.564951 2.60878904,-4.564951 2.50683996,0.40746 -3.81105796,6.052961 4.97275896,7.764999 -3.077641,0.44838" />
      <path
         inkscape:connector-curvature="0"
         id="path7588"
         style="fill:#424a52;fill-opacity:1;fill-rule:nonzero;stroke:none;stroke-width:0.03527778"
         d="m 14.963273,-56.390505 h -4.769199 v 4.68807 h 4.687348 v 1.915231 h -4.687348 v 5.747449 H 7.3203421 v -14.26633 h 7.6429309 v 1.91558" />
      <path
         inkscape:connector-curvature="0"
         id="path7590"
         style="fill:#424a52;fill-opacity:1;fill-rule:nonzero;stroke:none;stroke-width:0.03527778"
         d="m 28.882473,-51.376475 c 0,-2.62925 -1.202269,-5.13609 -4.05553,-5.13609 -2.85327,0 -4.055539,2.50684 -4.055539,5.13609 0,2.730851 1.059749,5.5432 4.055539,5.5432 2.995779,0 4.05553,-2.812349 4.05553,-5.5432 z m -11.16789,0 c 0,-3.99485 3.01625,-7.17409 7.11236,-7.17409 4.09716,0 7.112701,3.17924 7.112701,7.17409 0,4.25944 -2.7305,7.58155 -7.112701,7.58155 -4.3815,0 -7.11236,-3.32211 -7.11236,-7.58155" />
      <path
         inkscape:connector-curvature="0"
         id="path7592"
         style="fill:#424a52;fill-opacity:1;fill-rule:nonzero;stroke:none;stroke-width:0.03527778"
         d="m 38.237432,-51.661874 h 1.1617 c 1.97661,0 2.60844,-1.52858 2.60844,-2.567861 0,-1.61008 -1.14089,-2.16077 -2.28248,-2.16077 h -1.48766 z m -2.87408,-6.644211 h 4.953 c 2.73121,0 4.5653,1.30422 4.5653,3.729561 0,2.119849 -1.05975,3.342569 -2.40524,4.13738 l 3.38349,6.094239 -3.01625,0.54998 -2.89419,-5.95136 h -1.71203 v 5.70653 h -2.87408 v -14.26633" />
      <path
         inkscape:connector-curvature="0"
         id="path7594"
         style="fill:#424a52;fill-opacity:1;fill-rule:nonzero;stroke:none;stroke-width:0.03527778"
         d="m 51.505052,-45.955335 h 1.75225 c 3.28189,0 5.0546,-1.67146 5.0546,-5.6455 0,-2.955219 -1.71203,-4.78967 -4.72793,-4.78967 h -2.07892 z m 2.05811,-12.35075 c 5.80848,0 7.80591,3.281541 7.80591,6.725351 0,4.708529 -3.0166,7.540979 -8.0705,7.540979 h -4.66725 v -14.26633 h 4.93184" />
      <path
         inkscape:connector-curvature="0"
         id="path7596"
         style="fill:#424a52;fill-opacity:1;fill-rule:nonzero;stroke:none;stroke-width:0.03527778"
         d="m -54.290998,-19.647705 c 0,3.402221 0.63789,4.076102 3.15433,4.076102 2.69324,0 4.25263,-2.020081 4.25263,-5.528842 0,-4.253019 -2.5163,-5.776741 -5.35147,-5.776741 h -2.05549 z m 0,-8.399151 h 2.44531 c 1.8784,0 3.93404,-1.275498 3.93404,-5.209539 0,-3.40254 -1.45313,-4.78472 -4.43011,-4.78472 h -1.94924 z m -8.08027,13.644391 v -1.09859 c 1.59494,-0.106249 2.79962,-0.283739 2.94156,-0.921491 0.14166,-0.673449 0.14166,-1.205089 0.14166,-2.161468 v -16.444731 c 0,-0.95674 0,-1.48837 -0.14166,-2.16183 -0.14194,-0.63747 -1.34662,-0.81491 -2.94156,-0.9211 v -1.09855 h 11.27016 c 4.96132,0 8.15068,1.45274 8.15068,5.38656 0,3.15454 -2.30339,5.20976 -5.52827,5.883349 v 0.0706 c 4.18165,0.2129 7.19416,2.658211 7.19416,6.37921 0,4.81996 -3.79208,7.08808 -9.21438,7.08808 h -11.87235" />
      <path
         inkscape:connector-curvature="0"
         id="path7598"
         style="fill:#424a52;fill-opacity:1;fill-rule:nonzero;stroke:none;stroke-width:0.03527778"
         d="m -32.451727,-26.699944 h 2.480911 c 3.118628,0 4.181898,-2.65811 4.181898,-5.989541 0,-3.82763 -1.736579,-5.13856 -4.181898,-5.13856 h -2.480911 z m -8.080271,-12.510281 h 12.47472 c 4.04037,0 7.584371,1.9491 7.584371,6.27274 0,3.22499 -2.16182,5.882819 -5.2451,6.91085 l 3.614909,5.56369 c 1.630191,2.481159 3.437822,4.784799 4.430192,5.422591 v 0.637889 h -5.103292 c -2.091258,0 -4.253079,-6.024809 -7.052831,-10.915481 h -2.622698 v 6.733932 c 0,0.956379 0,1.488019 0.141819,2.161468 0.14178,0.637752 1.382181,0.815242 2.941431,0.921491 v 1.09859 h -11.163521 v -1.09859 c 1.55942,-0.106249 2.79993,-0.283739 2.94157,-0.921491 0.14182,-0.673449 0.14182,-1.205089 0.14182,-2.161468 v -16.444731 c 0,-0.95674 0,-1.48837 -0.14182,-2.16183 -0.14164,-0.63747 -1.38215,-0.81491 -2.94157,-0.9211 v -1.09855" />
      <path
         inkscape:connector-curvature="0"
         id="path7600"
         style="fill:#424a52;fill-opacity:1;fill-rule:nonzero;stroke:none;stroke-width:0.03527778"
         d="m 1.8896821,-26.452056 c 0,-8.293059 -3.969459,-11.907619 -7.76147,-11.907619 -4.6069201,0 -7.0171001,4.25273 -7.0171001,10.24184 0,8.364291 3.6149101,12.864681 7.6196511,12.864681 4.89091004,0 7.158919,-4.607171 7.158919,-11.198902 z m -20.2716801,-0.177059 c 0,-7.19455 5.847649,-13.00656 13.4673001,-13.00656 7.300381,0 12.297831,5.95418 12.297831,12.19144 0,8.18638 -6.48582096,13.467151 -13.573832,13.467151 -5.7411091,0 -12.1912991,-4.358852 -12.1912991,-12.652031" />
      <path
         inkscape:connector-curvature="0"
         id="path7602"
         style="fill:#424a52;fill-opacity:1;fill-rule:nonzero;stroke:none;stroke-width:0.03527778"
         d="m 29.949273,-26.452056 c 0,-8.293059 -3.969459,-11.907619 -7.761819,-11.907619 -4.607282,0 -7.017102,4.25273 -7.017102,10.24184 0,8.364291 3.61456,12.864681 7.62,12.864681 4.890561,0 7.158921,-4.607171 7.158921,-11.198902 z M 9.6772531,-26.629115 c 0,-7.19455 5.8476409,-13.00656 13.4672889,-13.00656 7.30073,0 12.297481,5.95418 12.297481,12.19144 0,8.18638 -6.485821,13.467151 -13.573479,13.467151 -5.741112,0 -12.1912909,-4.358852 -12.1912909,-12.652031" />
      <path
         inkscape:connector-curvature="0"
         id="path7604"
         style="fill:#424a52;fill-opacity:1;fill-rule:nonzero;stroke:none;stroke-width:0.03527778"
         d="m 38.737672,-35.028745 c 0,-0.95674 0,-1.48837 -0.14182,-2.16183 -0.14217,-0.63747 -1.34655,-0.81491 -2.941458,-0.9211 v -1.09855 h 11.163298 v 1.09855 c -1.5942,0.10619 -2.79929,0.28363 -2.94146,0.9211 -0.14182,0.67346 -0.14182,1.20509 -0.14182,2.16183 v 7.265491 c 0.38982,0 1.20509,-0.318881 2.304,-1.453131 l 6.1662,-6.27274 c 1.59491,-1.59491 0.28363,-2.65818 -1.34655,-2.62255 v -1.09855 h 7.2651 v 1.09855 c -1.38218,0.248 -2.72838,1.73637 -4.00438,3.048 l -6.344,6.626831 c 3.47345,4.43011 7.90293,10.206739 11.37638,13.502709 v 0.53167 h -4.74945 c -1.55928,0 -2.33856,-1.346629 -3.54365,-2.976848 l -6.55673,-9.178711 h -0.56692 v 7.97401 c 0,0.956379 0,1.488019 0.14182,2.161468 0.14217,0.637752 1.34726,0.815242 2.94146,0.921491 v 1.09859 H 35.654394 v -1.09859 c 1.594908,-0.106249 2.799288,-0.283739 2.941458,-0.921491 0.14182,-0.673449 0.14182,-1.205089 0.14182,-2.161468 v -16.444731" />
      <path
         inkscape:connector-curvature="0"
         id="path7606"
         style="fill:#424a52;fill-opacity:1;fill-rule:nonzero;stroke:none;stroke-width:0.03527778"
         d="m 60.917872,-15.501055 c 1.55928,-0.106249 2.8,-0.283739 2.94146,-0.921491 0.14182,-0.673449 0.14182,-1.205089 0.14182,-2.161468 v -16.444731 c 0,-0.95674 0,-1.48837 -0.14182,-2.16183 -0.14146,-0.63747 -1.38218,-0.81491 -2.94146,-0.9211 v -1.09855 h 17.40112 v 5.70548 h -0.95709 c -0.53128,-2.51602 -1.38218,-4.39456 -3.86256,-4.39456 h -4.50074 v 9.923429 h 2.94146 c 2.23238,0 3.18946,-1.382178 3.18946,-3.40233 h 0.95709 v 8.257432 h -0.95709 c -0.0709,-1.949091 -0.81491,-3.543901 -3.18946,-3.543901 h -2.94146 v 8.045 c 0,2.69349 1.31127,2.905861 4.21675,2.905861 4.50144,0 5.17454,-1.94909 6.66291,-5.102889 h 0.95709 l -1.06327,6.414238 h -18.85421 v -1.09859" />
      <path
         inkscape:connector-curvature="0"
         id="path7608"
         style="fill:#424a52;fill-opacity:1;fill-rule:nonzero;stroke:none;stroke-width:0.03527778"
         d="m 95.857332,-33.717125 c -0.63817,-2.23273 -1.94909,-4.64255 -4.74944,-4.64255 -1.59421,0 -3.43747,0.99201 -3.43747,3.61456 0,2.48073 2.37419,3.721451 6.23782,6.66298 3.61456,2.728671 4.74874,4.71343 4.74874,7.40682 0,4.359031 -4.32365,6.698231 -9.39165,6.698231 -2.94111,0 -4.89056,-0.425381 -6.73347,-1.13411 -0.14217,-0.071 -0.24836,-0.212521 -0.24836,-0.49611 v -5.38731 h 0.95709 c 0.60219,3.22545 2.62255,5.74146 5.63492,5.74146 2.30329,0 4.35927,-1.87812 4.35927,-4.46511 0,-2.339229 -1.02799,-3.93404 -5.98946,-7.158922 -2.65818,-1.701159 -4.85563,-3.65012 -4.85563,-6.769029 0,-3.50873 3.36726,-5.98946 8.25782,-5.98946 2.30364,0 4.04001,0.0709 5.81202,0.56691 0.248,0.10654 0.35489,0.31927 0.35489,0.49601 v 4.85563 h -0.95709" />
    </g>
  </g>
</svg>
