<?xml version="1.0" encoding="UTF-8"?>
<!DOCTYPE svg PUBLIC "-//W3C//DTD SVG 1.1//EN" "http://www.w3.org/Graphics/SVG/1.1/DTD/svg11.dtd">
<svg xmlns="http://www.w3.org/2000/svg" version="1.1" width="696px" height="1388px" style="shape-rendering:geometricPrecision; text-rendering:geometricPrecision; image-rendering:optimizeQuality; fill-rule:evenodd; clip-rule:evenodd" xmlns:xlink="http://www.w3.org/1999/xlink">
<g><path style="opacity:0.977" fill="#b09539" d="M -0.5,-0.5 C 0.833333,-0.5 2.16667,-0.5 3.5,-0.5C 47.7273,71.6116 92.2273,143.612 137,215.5C 147.174,232.511 156.84,249.844 166,267.5C 164.592,179.537 164.092,91.5368 164.5,3.5C 174.167,3.5 183.833,3.5 193.5,3.5C 193.5,120.5 193.5,237.5 193.5,354.5C 191.019,354.677 189.186,353.677 188,351.5C 142.667,276.833 97.3333,202.167 52,127.5C 43.6667,112.5 35.3333,97.5 27,82.5C 28.3998,171.804 28.8998,261.137 28.5,350.5C 18.8333,350.5 9.16667,350.5 -0.5,350.5C -0.5,233.5 -0.5,116.5 -0.5,-0.5 Z"/></g>
<g><path style="opacity:0.963" fill="#b09539" d="M 252.5,3.5 C 262.5,3.5 272.5,3.5 282.5,3.5C 282.5,66.5 282.5,129.5 282.5,192.5C 326.167,192.5 369.833,192.5 413.5,192.5C 413.5,129.5 413.5,66.5 413.5,3.5C 423.749,3.18055 433.916,3.51389 444,4.5C 444.667,119.5 444.667,234.5 444,349.5C 433.916,350.486 423.749,350.819 413.5,350.5C 413.5,306.833 413.5,263.167 413.5,219.5C 369.833,219.5 326.167,219.5 282.5,219.5C 282.5,263.167 282.5,306.833 282.5,350.5C 272.251,350.819 262.084,350.486 252,349.5C 251.169,234.097 251.336,118.764 252.5,3.5 Z"/></g>
<g><path style="opacity:0.976" fill="#b09539" d="M 502.5,3.5 C 512.5,3.5 522.5,3.5 532.5,3.5C 532.5,66.5 532.5,129.5 532.5,192.5C 576.167,192.5 619.833,192.5 663.5,192.5C 663.333,129.832 663.5,67.1658 664,4.5C 674.084,3.51389 684.251,3.18055 694.5,3.5C 694.5,119.167 694.5,234.833 694.5,350.5C 684.251,350.819 674.084,350.486 664,349.5C 663.5,306.168 663.333,262.835 663.5,219.5C 619.833,219.5 576.167,219.5 532.5,219.5C 532.5,263.167 532.5,306.833 532.5,350.5C 522.5,350.5 512.5,350.5 502.5,350.5C 502.5,234.833 502.5,119.167 502.5,3.5 Z"/></g>
<g><path style="opacity:0.988" fill="#c8cbcb" d="M -0.5,691.5 C 112.5,691.5 225.5,691.5 338.5,691.5C 338.5,804.5 338.5,917.5 338.5,1030.5C 225.5,1030.5 112.5,1030.5 -0.5,1030.5C -0.5,917.5 -0.5,804.5 -0.5,691.5 Z M 131.5,751.5 C 133.199,751.34 134.866,751.506 136.5,752C 143.747,758.743 150.414,765.91 156.5,773.5C 147.577,783.926 138.077,793.926 128,803.5C 127.333,804.5 127.333,805.5 128,806.5C 143.5,822 159,837.5 174.5,853C 175.5,853.667 176.5,853.667 177.5,853C 193.681,836.986 209.681,820.819 225.5,804.5C 215.999,794.499 206.165,784.832 196,775.5C 195.833,774.833 195.667,774.167 195.5,773.5C 201.586,765.91 208.253,758.743 215.5,752C 217.167,751.333 218.833,751.333 220.5,752C 243.333,774.833 266.167,797.667 289,820.5C 289.667,835.5 289.667,850.5 289,865.5C 275.593,851.424 261.593,838.091 247,825.5C 229.833,841.333 213.333,857.833 197.5,875C 217.626,896.126 238.126,916.96 259,937.5C 263.11,946.557 260.944,953.724 252.5,959C 247.661,961.166 242.994,960.833 238.5,958C 217.957,936.956 196.957,916.456 175.5,896.5C 154.68,916.819 134.014,937.319 113.5,958C 101.041,962.769 93.3747,958.603 90.5,945.5C 90.8302,942.676 91.6635,940.009 93,937.5C 113.681,916.986 134.181,896.32 154.5,875.5C 138.514,859.014 122.347,842.681 106,826.5C 91.3333,841.167 76.6667,855.833 62,870.5C 62.1865,853.849 62.5198,837.183 63,820.5C 86.0349,797.632 108.868,774.632 131.5,751.5 Z"/></g>
<g><path style="opacity:0.987" fill="#c8cbcb" d="M 695.5,691.5 C 695.5,804.5 695.5,917.5 695.5,1030.5C 582.5,1030.5 469.5,1030.5 356.5,1030.5C 356.5,917.5 356.5,804.5 356.5,691.5C 469.5,691.5 582.5,691.5 695.5,691.5 Z M 520.5,744.5 C 528.578,742.96 534.744,745.626 539,752.5C 540.403,763.102 540.903,773.769 540.5,784.5C 566.169,784.333 591.835,784.5 617.5,785C 618,785.5 618.5,786 619,786.5C 619.667,794.833 619.667,803.167 619,811.5C 618.5,812 618,812.5 617.5,813C 591.835,813.5 566.169,813.667 540.5,813.5C 540.666,820.841 540.5,828.174 540,835.5C 537.117,844.268 532.451,851.934 526,858.5C 512.625,846.381 507.792,831.381 511.5,813.5C 485.831,813.667 460.165,813.5 434.5,813C 434,812.5 433.5,812 433,811.5C 432.333,803.167 432.333,794.833 433,786.5C 433.5,786 434,785.5 434.5,785C 460.165,784.5 485.831,784.333 511.5,784.5C 511.334,774.494 511.5,764.494 512,754.5C 513.978,750.362 516.811,747.029 520.5,744.5 Z M 454.5,827.5 C 458.226,827.177 461.893,827.511 465.5,828.5C 481.333,856.167 497.167,883.833 513,911.5C 513.025,942.482 497.859,961.316 467.5,968C 437.939,970.092 418.105,957.258 408,929.5C 404.666,921.919 405,914.586 409,907.5C 424.432,880.969 439.598,854.302 454.5,827.5 Z M 586.5,827.5 C 590.437,827.207 594.27,827.54 598,828.5C 613.667,855.833 629.333,883.167 645,910.5C 646.708,936.481 635.541,954.648 611.5,965C 581.009,973.621 558.176,964.121 543,936.5C 539.599,928.833 538.266,920.833 539,912.5C 555.364,884.435 571.198,856.102 586.5,827.5 Z"/></g>
<g><path style="opacity:0.962" fill="#c8cbcb" d="M 459.5,842.5 C 472.519,864.025 485.185,885.858 497.5,908C 472.493,908.833 447.493,908.666 422.5,907.5C 434.592,885.643 446.926,863.977 459.5,842.5 Z"/></g>
<g><path style="opacity:0.962" fill="#c8cbcb" d="M 591.5,842.5 C 604.897,863.611 617.564,885.278 629.5,907.5C 604.507,908.666 579.507,908.833 554.5,908C 567.089,886.261 579.423,864.427 591.5,842.5 Z"/></g>
<g><path style="opacity:0.99" fill="#c8cbcb" d="M -0.5,1048.5 C 112.5,1048.5 225.5,1048.5 338.5,1048.5C 338.5,1161.5 338.5,1274.5 338.5,1387.5C 225.5,1387.5 112.5,1387.5 -0.5,1387.5C -0.5,1274.5 -0.5,1161.5 -0.5,1048.5 Z M 167.5,1097.5 C 175.578,1095.96 181.744,1098.63 186,1105.5C 187.426,1115.75 187.926,1126.09 187.5,1136.5C 200.504,1136.33 213.504,1136.5 226.5,1137C 227.667,1137.5 228.5,1138.33 229,1139.5C 229.667,1147.5 229.667,1155.5 229,1163.5C 228.626,1164.42 228.126,1165.25 227.5,1166C 214.171,1166.5 200.837,1166.67 187.5,1166.5C 187.5,1203.17 187.5,1239.83 187.5,1276.5C 205.503,1276.67 223.503,1276.5 241.5,1276C 247.333,1274.17 251.167,1270.33 253,1264.5C 253.333,1251.5 253.667,1238.5 254,1225.5C 256.432,1219.06 260.432,1213.72 266,1209.5C 277.878,1219.67 282.045,1232.5 278.5,1248C 282.332,1276.79 270.332,1294.79 242.5,1302C 224.17,1302.5 205.836,1302.67 187.5,1302.5C 189.462,1316.96 184.462,1328.29 172.5,1336.5C 160.201,1328.56 154.868,1317.23 156.5,1302.5C 138.83,1302.67 121.164,1302.5 103.5,1302C 75.6489,1294.78 63.6489,1276.78 67.5,1248C 67.6667,1240.5 67.8333,1233 68,1225.5C 70.1755,1219 74.1755,1214 80,1210.5C 85.4899,1214.66 89.4899,1220 92,1226.5C 92.3333,1239.5 92.6667,1252.5 93,1265.5C 95.2315,1270.73 99.0648,1274.23 104.5,1276C 121.83,1276.5 139.163,1276.67 156.5,1276.5C 156.5,1239.83 156.5,1203.17 156.5,1166.5C 143.163,1166.67 129.829,1166.5 116.5,1166C 116,1165.5 115.5,1165 115,1164.5C 114.333,1155.83 114.333,1147.17 115,1138.5C 115.5,1138 116,1137.5 116.5,1137C 129.829,1136.5 143.163,1136.33 156.5,1136.5C 156.105,1126.43 156.605,1116.43 158,1106.5C 160.406,1102.59 163.572,1099.59 167.5,1097.5 Z"/></g>
<g><path style="opacity:0.989" fill="#c8cbcb" d="M 695.5,1048.5 C 695.5,1161.5 695.5,1274.5 695.5,1387.5C 582.5,1387.5 469.5,1387.5 356.5,1387.5C 356.5,1274.5 356.5,1161.5 356.5,1048.5C 469.5,1048.5 582.5,1048.5 695.5,1048.5 Z M 434.5,1121.5 C 450.479,1137.15 466.479,1152.81 482.5,1168.5C 494.959,1165.36 507.626,1164.03 520.5,1164.5C 531.321,1164.1 541.988,1165.1 552.5,1167.5C 568.153,1152.35 583.653,1137.01 599,1121.5C 603.5,1126 608,1130.5 612.5,1135C 599.833,1147.67 587.167,1160.33 574.5,1173C 584.339,1178.75 594.339,1184.25 604.5,1189.5C 614.5,1180.83 624.5,1172.17 634.5,1163.5C 637.319,1170.7 637.819,1178.04 636,1185.5C 634.336,1193.17 631.502,1200.33 627.5,1207C 637.729,1220.49 640.229,1235.32 635,1251.5C 624.965,1241.8 614.632,1232.46 604,1223.5C 590.645,1233.76 575.812,1241.26 559.5,1246C 568.375,1255.21 577.542,1264.04 587,1272.5C 593.957,1266.54 600.624,1260.21 607,1253.5C 607.5,1271.5 607.667,1289.5 607.5,1307.5C 589.497,1307.67 571.497,1307.5 553.5,1307C 560.167,1300.33 566.833,1293.67 573.5,1287C 561.167,1274.67 548.833,1262.33 536.5,1250C 524.634,1250.83 512.8,1250.33 501,1248.5C 500.167,1248.67 499.333,1248.83 498.5,1249C 485.833,1261.67 473.167,1274.33 460.5,1287C 467.167,1293.67 473.833,1300.33 480.5,1307C 462.503,1307.5 444.503,1307.67 426.5,1307.5C 426.333,1289.5 426.5,1271.5 427,1253.5C 433.667,1260.17 440.333,1266.83 447,1273.5C 456.681,1263.99 466.181,1254.32 475.5,1244.5C 453.339,1235.82 433.672,1223.32 416.5,1207C 429.642,1194.01 444.309,1183.18 460.5,1174.5C 447.681,1161.18 434.681,1148.01 421.5,1135C 426.037,1130.63 430.37,1126.13 434.5,1121.5 Z"/></g>
</svg>
