<?xml version="1.0" encoding="UTF-8" standalone="no"?>
<!-- Created with Inkscape (http://www.inkscape.org/) -->

<svg
   xmlns:dc="http://purl.org/dc/elements/1.1/"
   xmlns:cc="http://creativecommons.org/ns#"
   xmlns:rdf="http://www.w3.org/1999/02/22-rdf-syntax-ns#"
   xmlns:svg="http://www.w3.org/2000/svg"
   xmlns="http://www.w3.org/2000/svg"
   xmlns:sodipodi="http://sodipodi.sourceforge.net/DTD/sodipodi-0.dtd"
   xmlns:inkscape="http://www.inkscape.org/namespaces/inkscape"
   width="102.72511mm"
   height="66.514725mm"
   viewBox="0 0 363.98659 235.68209"
   id="svg2"
   version="1.1"
   inkscape:version="0.48.4 r9939"
   sodipodi:docname="logo.svg">
  <defs
     id="defs4" />
  <sodipodi:namedview
     id="base"
     pagecolor="#ffffff"
     bordercolor="#666666"
     borderopacity="1.0"
     inkscape:pageopacity="0.0"
     inkscape:pageshadow="2"
     inkscape:zoom="4.8288816"
     inkscape:cx="304.93636"
     inkscape:cy="162.02792"
     inkscape:document-units="px"
     inkscape:current-layer="layer1"
     showgrid="false"
     fit-margin-top="0"
     fit-margin-left="0"
     fit-margin-right="0"
     fit-margin-bottom="0"
     inkscape:window-width="3440"
     inkscape:window-height="1388"
     inkscape:window-x="0"
     inkscape:window-y="1290"
     inkscape:window-maximized="1" />
  <metadata
     id="metadata7">
    <rdf:RDF>
      <cc:Work
         rdf:about="">
        <dc:format>image/svg+xml</dc:format>
        <dc:type
           rdf:resource="http://purl.org/dc/dcmitype/StillImage" />
        <dc:title />
      </cc:Work>
    </rdf:RDF>
  </metadata>
  <g
     inkscape:label="Layer 1"
     inkscape:groupmode="layer"
     id="layer1"
     transform="translate(-2.3982107,-4.1989205)">
    <path
       style="fill:#f07500;fill-opacity:1"
       d="m 47.176601,239.28363 c -5.931227,-0.55947 -27.681755,-4.22598 -32.055165,-5.40357 -2.07399,-0.55845 -4.233192,-1.87918 -4.798224,-2.93495 -1.5368803,-2.87169 -1.3352213,-32.57099 0.235359,-34.66246 1.169606,-1.55751 2.826504,-1.57287 22.475894,-0.2084 23.940683,1.66247 49.557371,1.9102 55.48021,0.53653 4.688435,-1.08738 7.965712,-3.37647 12.038565,-8.40861 2.55465,-3.15635 3.05578,-4.77717 3.46931,-11.22092 0.41012,-6.39066 0.13615,-8.24889 -1.80848,-12.26596 -3.032222,-6.26374 -8.843746,-10.44742 -43.599863,-31.38731 -15.37709,-9.2644 -30.313972,-18.77669 -33.193072,-21.1384 C 7.4278258,97.429718 -0.28455384,76.404985 3.2250492,51.680786 6.4975399,28.62698 21.924734,13.108946 48.186753,6.4543352 56.575847,4.3285982 59.384964,4.1549227 84.552245,4.2060173 110.98791,4.2596867 127.693,5.5691136 142.52645,8.7503172 c 8.8852,1.9055358 8.69586,1.4488168 8.69586,20.9762328 0,9.443254 -0.32466,17.494392 -0.72147,17.891418 -0.39681,0.397026 -10.85189,0.180759 -23.23351,-0.480593 -31.333666,-1.673656 -55.807845,-1.737312 -61.341891,-0.159549 -9.14619,2.60759 -14.533064,11.880471 -12.225475,21.04474 2.380412,9.453472 2.792488,9.760895 43.01118,32.087824 37.474796,20.80367 45.139276,26.6321 53.118836,40.39396 5.52559,9.52966 7.08771,16.64546 7.11392,32.40552 0.0209,12.57654 -0.26701,15.05856 -2.48755,21.44376 -3.60952,10.37915 -7.14002,15.91506 -15.26287,23.93247 -10.6584,10.52004 -24.37881,16.99122 -42.904262,20.23561 -7.878674,1.3798 -37.663396,1.84187 -49.112617,0.76192 z"
       id="path3391"
       inkscape:connector-curvature="0" />
    <path
       style="fill:#f07500;fill-opacity:1"
       d="m 180.66485,230.76483 c -1.04173,-8.43974 -0.84371,-152.873433 0.21653,-157.940696 l 0.84543,-4.04061 25.27138,-0.272483 25.27139,-0.272484 0.89455,3.808018 c 1.16893,4.976001 1.17842,156.199085 0.0106,161.139275 l -0.89584,3.78807 -25.42358,0 -25.4236,0 -0.7664,-6.20909 -1e-5,0 z"
       id="path3393"
       inkscape:connector-curvature="0" />
    <path
       style="fill:#f07500;fill-opacity:1"
       d="m 328.4513,237.09293 c -6.28336,-0.40639 -10.51562,-1.19367 -12.13296,-2.25695 -3.79689,-2.4962 -48.18555,-78.36522 -51.64451,-88.27071 -1.56147,-4.47162 -1.76749,-9.65491 -1.79668,-45.20433 -0.0181,-22.084456 0.30795,-40.140739 0.72463,-40.125068 0.41669,0.01567 9.14599,14.675508 19.39844,32.577419 31.84014,55.596409 31.10464,54.433979 34.21448,54.074539 l 2.70309,-0.31241 c 0,0 0.62282,-17.94014 0.62282,-23.94567 0,-13.06071 0.47639,-44.756454 0.55052,-70.191854 0.12539,-43.020349 -0.57024,-45.4684678 1.07421,-46.143744 0.97228,-0.3992511 11.53119,-1.1400856 22.19873,-1.1400856 14.56857,0 19.72218,0.3268415 20.70812,1.313305 1.06061,1.0611671 1.31262,22.3941856 1.31262,111.1167886 0,60.39191 -0.34814,111.04778 -0.77366,112.56861 -0.42551,1.52082 -1.78921,3.41005 -3.03046,4.19827 -2.74504,1.74317 -20.27577,2.6379 -34.12939,1.74189 z"
       id="path3395"
       inkscape:connector-curvature="0"
       sodipodi:nodetypes="ssssssscsssssssss" />
    <rect
       style="fill:#000000;fill-opacity:1"
       id="rect3403"
       width="56.011375"
       height="43.207657"
       x="178.87065"
       y="6.042284"
       ry="6.101872" />
  </g>
</svg>
